<?xml version="1.0" encoding="UTF-8"?>
<svg width="12px" height="20px" viewBox="0 0 12 20" version="1.1" xmlns="http://www.w3.org/2000/svg" xmlns:xlink="http://www.w3.org/1999/xlink">
    <!-- Generator: Sketch 43.1 (39012) - http://www.bohemiancoding.com/sketch -->
    <title>37-path</title>
    <desc>Created with Sketch.</desc>
    <defs></defs>
    <g id="Home-Page" stroke="none" stroke-width="1" fill="none" fill-rule="evenodd">
        <g id="Desktop" transform="translate(-1163.000000, -2524.000000)" fill="#010101">
            <path d="M1168.55587,2544 C1169.16921,2544 1169.66699,2543.50277 1169.66699,2542.88888 L1169.66699,2527.79378 L1172.21423,2530.34157 C1172.43145,2530.55824 1172.7159,2530.66657 1172.99979,2530.66657 C1173.28424,2530.66657 1173.56868,2530.55824 1173.78591,2530.34157 C1174.2198,2529.90768 1174.2198,2529.20379 1173.78591,2528.76989 L1169.34143,2524.32542 C1168.90699,2523.89153 1168.2042,2523.89153 1167.77031,2524.32542 L1163.32584,2528.76989 C1162.89139,2529.20379 1162.89139,2529.90768 1163.32584,2530.34157 C1163.75973,2530.77546 1164.46251,2530.77546 1164.89696,2530.34157 L1167.44475,2527.79378 L1167.44475,2542.88888 C1167.44475,2543.50277 1167.94198,2544 1168.55587,2544 L1168.55587,2544 Z" id="37-path"></path>
        </g>
    </g>
</svg>